<?xml version="1.0" encoding="UTF-8"?>
<svg id="Layer_2" data-name="Layer 2" xmlns="http://www.w3.org/2000/svg" viewBox="0 0 525.81 281.55">
  <defs>
    <style>
      .cls-1 {
        fill: #0067f3;
      }

      .cls-2 {
        fill: #fce40b;
      }
    </style>
  </defs>
  <g id="Layer_1-2" data-name="Layer 1">
    <g>
      <path class="cls-1" d="M173.52,258.46H75.13l-5-49.34h-16.55c-9.87,0-18.36-7.04-20.19-16.74l-5.31-28.21H11.85c-3.69,0-7.1-1.67-9.36-4.58-2.26-2.91-3.03-6.63-2.12-10.2,.87-3.42,1.79-6.82,2.7-10.23,1.71-6.37,3.48-12.96,4.92-19.45,1.19-5.37,1.86-10.74,2.56-16.43,.52-4.23,1.07-8.61,1.85-12.98C21.78,37.98,67.22,0,120.46,0c60.52,0,109.76,49.24,109.76,109.76,0,28.05-11.14,55.75-30.55,75.98-4.25,4.43-9.05,8.61-14.27,12.42-2.45,1.79-5.07,3.56-7.79,5.24-.65,.4-1.27,.72-1.81,1-.06,.03-.12,.06-.18,.09l-2.09,53.95Zm-88.7-10.71h78.4l1.7-43.75c-.59-5.73,4.16-8.18,5.98-9.11,.35-.18,.72-.36,1.06-.57,2.49-1.55,4.88-3.16,7.12-4.8,4.71-3.44,9.04-7.21,12.86-11.19,17.52-18.26,27.57-43.25,27.57-68.57,0-54.62-44.43-99.05-99.05-99.05-48.05,0-89.05,34.27-97.5,81.48-.73,4.08-1.25,8.31-1.76,12.41-.7,5.69-1.43,11.57-2.74,17.44-1.49,6.72-3.29,13.42-5.03,19.9-.9,3.36-1.81,6.73-2.67,10.1-.11,.45,.05,.78,.2,.98,.16,.2,.44,.44,.9,.44h25.1l6.96,36.93c.87,4.65,4.94,8.02,9.67,8.02h26.23l5,49.34Z"/>
      <rect class="cls-2" x="74.55" y="263.03" width="99.35" height="18.51"/>
      <path d="M175.1,122.95c-.08,.11-.18,.22-.23,.34-.98,2.42-3.02,3.61-5.43,3.19-2.28-.4-3.83-2.39-3.84-4.99-.02-5.17,0-10.35,0-15.52,0-.35,0-.7,0-1.16-1.12,.72-1.67,1.74-2.46,2.53-11.28,11.26-22.56,22.52-33.85,33.79-2.72,2.72-5.23,2.72-7.95,0-6.31-6.3-12.63-12.58-18.9-18.91-.73-.73-1.04-.61-1.68,.04-10.35,10.37-20.71,20.71-31.09,31.05-2.84,2.83-6.72,1.99-8.17-1.74-.03-.09-.13-.15-.2-.22,0-.74,0-1.48,0-2.22,.55-1.44,1.63-2.48,2.69-3.54,11.21-11.18,22.41-22.36,33.62-33.55,2.78-2.78,5.22-2.77,8.03,.04,6.31,6.3,12.63,12.59,18.91,18.91,.63,.63,.93,.58,1.53-.02,7.89-7.91,15.86-15.74,23.67-23.72,2.89-2.95,5.82-5.86,8.69-8.83,.1-.1,.17-.22,.38-.48-.5,0-.85,0-1.2,0-5.26,0-10.51,.02-15.77-.01-2.08-.01-3.73-1.24-4.4-3.12-.65-1.83-.13-3.86,1.34-5.14,1-.87,2.18-1.17,3.49-1.16,6.18,.02,12.36,.02,18.55,0,3.11,0,6.22-.06,9.33-.06,2.55,0,4.08,1.4,4.95,3.67v30.84Z"/>
      <g>
        <path d="M306.25,33.19v8.51h-14.38v39.57h-10.11V41.7h-14.45v-8.51h38.95Z"/>
        <path d="M343.5,60.39v20.88h-9.49v-21.63c0-1.91-.33-3.46-.98-4.63-.85-1.65-2.46-2.48-4.83-2.48s-4.32,.82-5.59,2.46c-1.27,1.64-1.91,3.98-1.91,7.03v19.24h-9.26V33.35h9.26v16.99c1.35-2.06,2.91-3.51,4.68-4.32,1.77-.82,3.64-1.22,5.59-1.22,2.2,0,4.19,.38,5.98,1.14,1.79,.76,3.27,1.92,4.42,3.49,.98,1.33,1.58,2.69,1.79,4.09s.33,3.69,.33,6.87Z"/>
        <path d="M382.61,70.83c-.24,2.11-1.34,4.25-3.29,6.43-3.04,3.46-7.31,5.19-12.79,5.19-4.52,0-8.51-1.46-11.97-4.37-3.46-2.91-5.19-7.65-5.19-14.22,0-6.15,1.56-10.87,4.68-14.16,3.12-3.28,7.17-4.93,12.15-4.93,2.96,0,5.62,.55,7.99,1.66s4.33,2.86,5.87,5.25c1.39,2.11,2.29,4.56,2.71,7.34,.24,1.63,.34,3.98,.29,7.05h-24.33c.13,3.57,1.25,6.07,3.36,7.5,1.28,.89,2.83,1.34,4.63,1.34,1.91,0,3.47-.54,4.66-1.63,.65-.59,1.23-1.4,1.73-2.45h9.49Zm-9.2-10.89c-.15-2.46-.9-4.32-2.23-5.59-1.34-1.27-3-1.91-4.98-1.91-2.15,0-3.82,.67-5.01,2.02s-1.93,3.18-2.23,5.48h14.45Z"/>
        <path d="M305.41,110.07h-24.1v11.06h21.1v8.35h-21.1v20.16h-9.98v-48.01h34.09v8.45Z"/>
        <path d="M341.03,118.58c3,3.76,4.5,8.21,4.5,13.34s-1.5,9.68-4.5,13.39c-3,3.71-7.56,5.56-13.67,5.56s-10.67-1.85-13.67-5.56c-3-3.71-4.5-8.17-4.5-13.39s1.5-9.58,4.5-13.34c3-3.76,7.56-5.64,13.67-5.64s10.67,1.88,13.67,5.64Zm-13.7,2.22c-2.72,0-4.81,.96-6.28,2.89-1.47,1.92-2.2,4.67-2.2,8.24s.73,6.32,2.2,8.25,3.56,2.9,6.28,2.9,4.81-.97,6.26-2.9,2.19-4.69,2.19-8.25-.73-6.31-2.19-8.24c-1.46-1.93-3.54-2.89-6.26-2.89Z"/>
        <path d="M370.06,122.66c-3.74,0-6.25,1.22-7.53,3.65-.72,1.37-1.08,3.48-1.08,6.33v16.99h-9.36v-35.55h8.87v6.2c1.44-2.37,2.68-3.99,3.75-4.86,1.74-1.46,4-2.19,6.78-2.19,.17,0,.32,0,.44,.02,.12,.01,.38,.03,.8,.05v9.52c-.59-.07-1.11-.11-1.56-.13-.46-.02-.83-.03-1.11-.03Z"/>
        <path d="M405.15,149.63l-5.58-25.9-5.64,25.9h-9.66l-9.98-35.55h9.98l5.55,25.51,5.12-25.51h9.43l5.41,25.61,5.55-25.61h9.69l-10.31,35.55h-9.56Z"/>
        <path d="M431.47,117.93c2.46-3.13,6.68-4.7,12.66-4.7,3.89,0,7.35,.77,10.37,2.32,3.02,1.54,4.53,4.46,4.53,8.74v16.31c0,1.13,.02,2.5,.07,4.11,.07,1.22,.25,2.04,.55,2.48,.3,.44,.76,.79,1.37,1.08v1.37h-10.11c-.28-.72-.48-1.39-.59-2.02-.11-.63-.19-1.35-.26-2.15-1.28,1.39-2.76,2.58-4.44,3.55-2,1.15-4.26,1.73-6.78,1.73-3.22,0-5.88-.92-7.98-2.76-2.1-1.84-3.15-4.44-3.15-7.81,0-4.37,1.68-7.54,5.06-9.49,1.85-1.06,4.57-1.83,8.15-2.28l3.16-.39c1.72-.22,2.95-.49,3.69-.82,1.33-.57,1.99-1.45,1.99-2.64,0-1.46-.51-2.46-1.52-3.02-1.01-.55-2.49-.83-4.45-.83-2.2,0-3.75,.54-4.66,1.63-.65,.8-1.09,1.89-1.3,3.26h-8.97c.2-3.11,1.07-5.66,2.61-7.66Zm6.92,24.98c.87,.72,1.94,1.08,3.2,1.08,2,0,3.84-.59,5.53-1.76,1.69-1.17,2.56-3.32,2.63-6.43v-3.46c-.59,.37-1.18,.67-1.78,.9-.6,.23-1.42,.44-2.46,.64l-2.09,.39c-1.96,.35-3.36,.77-4.21,1.27-1.44,.85-2.15,2.16-2.15,3.95,0,1.59,.45,2.73,1.34,3.42Z"/>
        <path d="M485.16,122.66c-3.74,0-6.25,1.22-7.53,3.65-.72,1.37-1.08,3.48-1.08,6.33v16.99h-9.36v-35.55h8.87v6.2c1.44-2.37,2.69-3.99,3.75-4.86,1.74-1.46,4-2.19,6.78-2.19,.17,0,.32,0,.44,.02,.12,.01,.39,.03,.8,.05v9.52c-.59-.07-1.11-.11-1.57-.13-.46-.02-.83-.03-1.11-.03Z"/>
        <path d="M525.64,101.62v48.01h-9.03v-4.92c-1.33,2.11-2.84,3.64-4.53,4.6-1.7,.96-3.81,1.44-6.33,1.44-4.15,0-7.65-1.68-10.49-5.04-2.84-3.36-4.26-7.67-4.26-12.93,0-6.07,1.4-10.84,4.19-14.32,2.79-3.48,6.53-5.22,11.2-5.22,2.15,0,4.07,.47,5.74,1.42,1.67,.95,3.03,2.26,4.08,3.93v-16.96h9.43Zm-25.05,30.47c0,3.28,.65,5.9,1.96,7.86,1.28,1.98,3.24,2.97,5.87,2.97s4.63-.98,6-2.94c1.37-1.96,2.05-4.49,2.05-7.6,0-4.35-1.1-7.46-3.29-9.33-1.35-1.13-2.91-1.7-4.7-1.7-2.72,0-4.71,1.03-5.99,3.08-1.27,2.05-1.91,4.6-1.91,7.65Z"/>
        <path d="M288.77,211.05c2.37,0,4.29-.26,5.77-.78,2.8-1,4.21-2.86,4.21-5.58,0-1.59-.7-2.82-2.09-3.69-1.39-.85-3.58-1.6-6.56-2.25l-5.09-1.14c-5-1.13-8.46-2.36-10.37-3.69-3.24-2.22-4.86-5.69-4.86-10.4,0-4.31,1.57-7.88,4.7-10.73,3.13-2.85,7.73-4.27,13.8-4.27,5.07,0,9.39,1.34,12.97,4.03,3.58,2.69,5.45,6.58,5.63,11.69h-9.65c-.17-2.89-1.44-4.95-3.78-6.17-1.57-.8-3.51-1.21-5.84-1.21-2.59,0-4.65,.52-6.2,1.57-1.54,1.04-2.32,2.5-2.32,4.37,0,1.72,.76,3,2.28,3.85,.98,.57,3.07,1.23,6.26,1.99l8.28,1.99c3.63,.87,6.37,2.03,8.22,3.49,2.87,2.26,4.31,5.53,4.31,9.82s-1.68,8.04-5.04,10.94-8.11,4.35-14.24,4.35-11.19-1.43-14.78-4.29c-3.59-2.86-5.38-6.79-5.38-11.79h9.59c.3,2.2,.9,3.84,1.79,4.93,1.63,1.98,4.42,2.97,8.38,2.97Z"/>
        <path d="M344.78,186.94c3,3.76,4.5,8.21,4.5,13.34s-1.5,9.68-4.5,13.39c-3,3.71-7.56,5.56-13.67,5.56s-10.67-1.85-13.67-5.56c-3-3.71-4.5-8.17-4.5-13.39s1.5-9.58,4.5-13.34c3-3.76,7.56-5.64,13.67-5.64s10.67,1.88,13.67,5.64Zm-13.7,2.22c-2.72,0-4.81,.96-6.28,2.89-1.47,1.92-2.2,4.67-2.2,8.24s.73,6.32,2.2,8.25c1.47,1.94,3.56,2.9,6.28,2.9s4.81-.97,6.26-2.9c1.46-1.94,2.19-4.69,2.19-8.25s-.73-6.31-2.19-8.24c-1.46-1.93-3.54-2.89-6.26-2.89Z"/>
        <path d="M386.69,195.2h-9.52c-.17-1.33-.62-2.52-1.34-3.59-1.04-1.44-2.66-2.15-4.86-2.15-3.13,0-5.27,1.56-6.43,4.66-.61,1.65-.91,3.85-.91,6.59s.3,4.71,.91,6.29c1.11,2.96,3.2,4.44,6.26,4.44,2.17,0,3.72-.59,4.63-1.76,.91-1.17,1.47-2.7,1.66-4.57h9.49c-.22,2.83-1.24,5.5-3.07,8.02-2.91,4.07-7.23,6.1-12.95,6.1s-9.93-1.7-12.62-5.09c-2.7-3.39-4.04-7.8-4.04-13.21,0-6.11,1.49-10.86,4.47-14.25,2.98-3.39,7.09-5.09,12.33-5.09,4.46,0,8.11,1,10.94,3s4.52,5.53,5.04,10.6Z"/>
        <path d="M402.64,169.62v8.58h-9.43v-8.58h9.43Zm0,12.82v35.55h-9.43v-35.55h9.43Z"/>
        <path d="M442.08,207.56c-.24,2.11-1.34,4.25-3.29,6.43-3.04,3.46-7.31,5.19-12.79,5.19-4.52,0-8.51-1.46-11.97-4.37-3.46-2.91-5.19-7.65-5.19-14.22,0-6.15,1.56-10.87,4.68-14.16,3.12-3.28,7.17-4.93,12.15-4.93,2.96,0,5.62,.56,7.99,1.66,2.37,1.11,4.33,2.86,5.87,5.25,1.39,2.11,2.29,4.56,2.71,7.34,.24,1.63,.34,3.98,.29,7.05h-24.33c.13,3.57,1.25,6.07,3.36,7.5,1.28,.89,2.83,1.34,4.63,1.34,1.91,0,3.47-.54,4.66-1.63,.65-.59,1.23-1.4,1.73-2.45h9.49Zm-9.2-10.89c-.15-2.46-.9-4.32-2.23-5.59-1.34-1.27-3-1.91-4.98-1.91-2.15,0-3.82,.67-5.01,2.02s-1.93,3.18-2.23,5.48h14.45Z"/>
        <path d="M465.07,211.37v6.95l-4.4,.16c-4.39,.15-7.39-.61-9-2.28-1.04-1.06-1.57-2.71-1.57-4.93v-21.89h-4.96v-6.62h4.96v-9.92h9.2v9.92h5.77v6.62h-5.77v18.79c0,1.46,.18,2.36,.55,2.72,.37,.36,1.5,.54,3.39,.54,.28,0,.58,0,.9-.02,.31-.01,.62-.03,.93-.05Z"/>
        <path d="M485.49,208.67l7.34-26.22h9.88l-12.2,34.97c-2.35,6.74-4.21,10.92-5.58,12.54-1.37,1.62-4.11,2.43-8.22,2.43-.83,0-1.49,0-1.99-.02s-1.25-.05-2.25-.11v-7.44l1.17,.07c.91,.04,1.78,.01,2.61-.1,.83-.11,1.52-.36,2.09-.75,.54-.37,1.05-1.14,1.52-2.32,.47-1.17,.66-1.89,.57-2.15l-13.05-37.12h10.34l7.76,26.22Z"/>
      </g>
      <g>
        <path d="M273.09,244.07h-4.24l.46-2.32h11.19l-.46,2.32h-4.29l-2.46,13.04h-2.67l2.46-13.04Z"/>
        <path d="M288.98,250.34c0,3.78-2.62,7.02-6.4,7.02-2.8,0-4.54-1.94-4.54-4.58,0-3.76,2.62-7.02,6.4-7.02,2.99,0,4.54,2.14,4.54,4.58Zm-8.2,2.37c0,1.53,.8,2.6,2.16,2.6,1.98,0,3.3-2.73,3.3-4.95,0-1.14-.52-2.55-2.12-2.55-2.12,0-3.35,2.83-3.35,4.9Z"/>
        <path d="M290.69,259.09c.64,.39,1.87,.66,2.92,.66,1.73,0,3.05-.82,3.6-3.4l.27-1.25h-.05c-.91,1.32-2.07,1.96-3.49,1.96-2.21,0-3.46-1.82-3.46-3.92-.02-3.72,2.64-7.38,7.25-7.38,1.44,0,2.83,.32,3.85,.77l-1.69,9.16c-.41,2.16-1.03,3.9-2.28,4.95-1.16,.96-2.71,1.23-4.1,1.23s-2.76-.3-3.49-.75l.66-2.03Zm8.02-10.99c-.3-.14-.87-.27-1.48-.27-2.32,0-3.97,2.51-3.97,4.9,0,1.16,.46,2.26,1.78,2.26s2.64-1.57,3.03-3.58l.64-3.31Z"/>
        <path d="M311.31,256.47c-1.09,.57-2.58,.89-3.92,.89-3.08,0-4.56-1.89-4.56-4.6,0-3.35,2.46-7,6.29-7,2.19,0,3.58,1.25,3.58,3.12,0,2.85-2.99,3.76-7.27,3.67-.05,.39,.05,1.14,.3,1.57,.43,.75,1.23,1.14,2.28,1.14,1.25,0,2.26-.32,3.05-.73l.25,1.94Zm-2.53-8.73c-1.66,0-2.76,1.48-3.08,2.83,2.73,.02,4.49-.34,4.49-1.69,0-.71-.57-1.14-1.41-1.14Z"/>
        <path d="M319.15,243.16l-.52,2.85h2.48l-.41,2.05h-2.48l-.87,4.47c-.11,.52-.21,1.09-.21,1.57,0,.62,.27,1,.98,1,.32,0,.64-.02,.91-.07l-.25,2.07c-.39,.16-1.09,.23-1.73,.23-1.82,0-2.62-1-2.62-2.28,0-.61,.07-1.23,.23-2.05l.96-4.95h-1.48l.39-2.05h1.48l.41-2.07,2.74-.77Z"/>
        <path d="M321.11,257.1l3.08-16.18h2.64l-1.3,6.75h.05c.93-1.16,2.16-1.91,3.71-1.91s2.78,.93,2.78,2.99c0,.57-.09,1.34-.21,1.94l-1.21,6.43h-2.64l1.19-6.22c.07-.43,.14-.91,.14-1.46,0-.84-.39-1.5-1.39-1.5-1.28,0-2.76,1.55-3.19,3.9l-1,5.29h-2.64Z"/>
        <path d="M342.35,256.47c-1.09,.57-2.58,.89-3.92,.89-3.08,0-4.56-1.89-4.56-4.6,0-3.35,2.46-7,6.29-7,2.19,0,3.58,1.25,3.58,3.12,0,2.85-2.99,3.76-7.27,3.67-.04,.39,.05,1.14,.3,1.57,.43,.75,1.23,1.14,2.28,1.14,1.25,0,2.26-.32,3.05-.73l.25,1.94Zm-2.53-8.73c-1.66,0-2.76,1.48-3.08,2.83,2.74,.02,4.49-.34,4.49-1.69,0-.71-.57-1.14-1.41-1.14Z"/>
        <path d="M344.57,257.1l1.3-6.84c.3-1.57,.46-3.28,.57-4.26h2.3c-.07,.75-.14,1.53-.25,2.33h.07c.75-1.48,1.96-2.58,3.46-2.58,.21,0,.41,.02,.59,.02l-.52,2.6c-.14-.02-.32-.02-.5-.02-1.89,0-3.1,1.91-3.53,4.29l-.84,4.47h-2.64Z"/>
        <path d="M349.97,259.86c.87-1.73,1.89-4.13,2.44-6.02l2.96-.23c-.93,2.14-2.35,4.6-3.44,6.06l-1.96,.18Z"/>
        <path d="M364.65,246.01l.21,5.4c.04,1.3,.02,2.19-.05,3.28h.05c.34-.98,.8-2.01,1.3-3.12l2.69-5.56h2.21l.46,5.4c.09,1.28,.14,2.3,.11,3.28h.05c.34-1.07,.68-2.07,1.14-3.26l2.39-5.42h2.69l-5.45,11.1h-2.48l-.5-4.83c-.09-1.09-.14-2.12-.11-3.28h-.04c-.55,1.35-.84,2.16-1.3,3.17l-2.48,4.95h-2.48l-1.02-11.1h2.64Z"/>
        <path d="M386.12,256.47c-1.09,.57-2.58,.89-3.92,.89-3.08,0-4.56-1.89-4.56-4.6,0-3.35,2.46-7,6.29-7,2.19,0,3.58,1.25,3.58,3.12,0,2.85-2.99,3.76-7.27,3.67-.05,.39,.05,1.14,.3,1.57,.43,.75,1.23,1.14,2.28,1.14,1.25,0,2.26-.32,3.05-.73l.25,1.94Zm-2.53-8.73c-1.66,0-2.76,1.48-3.08,2.83,2.73,.02,4.49-.34,4.49-1.69,0-.71-.57-1.14-1.41-1.14Z"/>
        <path d="M392.5,257.1l1.41-7.66c.25-1.32,.41-2.48,.55-3.44h2.3l-.25,1.94h.04c1.03-1.48,2.42-2.19,3.87-2.19,1.73,0,2.51,1.12,2.6,2.28,1-1.5,2.39-2.26,3.94-2.28,1.5,0,2.69,.98,2.69,2.96,0,.48-.09,1.3-.18,1.89l-1.21,6.5h-2.58l1.14-6.2c.09-.43,.16-.96,.16-1.39,0-.96-.39-1.6-1.34-1.6-1.23,0-2.58,1.53-3.01,3.87l-.98,5.31h-2.58l1.21-6.29c.07-.46,.14-.89,.14-1.3,0-.82-.25-1.6-1.34-1.6-1.23,0-2.64,1.69-3.05,3.94l-.96,5.24h-2.58Z"/>
        <path d="M422.42,250.34c0,3.78-2.62,7.02-6.4,7.02-2.8,0-4.54-1.94-4.54-4.58,0-3.76,2.62-7.02,6.4-7.02,2.99,0,4.54,2.14,4.54,4.58Zm-8.2,2.37c0,1.53,.8,2.6,2.16,2.6,1.98,0,3.31-2.73,3.31-4.95,0-1.14-.52-2.55-2.12-2.55-2.12,0-3.35,2.83-3.35,4.9Z"/>
        <path d="M426.78,246.01l.71,5.52c.14,1.32,.25,2.16,.32,2.89h.07c.27-.71,.59-1.5,1.21-2.83l2.76-5.58h2.94l-6.18,11.1h-2.67l-1.89-11.1h2.73Z"/>
        <path d="M442.98,256.47c-1.09,.57-2.58,.89-3.92,.89-3.08,0-4.56-1.89-4.56-4.6,0-3.35,2.46-7,6.29-7,2.19,0,3.58,1.25,3.58,3.12,0,2.85-2.99,3.76-7.27,3.67-.04,.39,.05,1.14,.3,1.57,.43,.75,1.23,1.14,2.28,1.14,1.25,0,2.26-.32,3.05-.73l.25,1.94Zm-2.53-8.73c-1.66,0-2.76,1.48-3.08,2.83,2.74,.02,4.49-.34,4.49-1.69,0-.71-.57-1.14-1.41-1.14Z"/>
        <path d="M449.68,257.1l1.71-9.05h-1.46l.41-2.05h1.44l.11-.57c.25-1.41,.8-2.8,1.85-3.74,.8-.71,1.89-1.03,2.92-1.03,.77,0,1.32,.14,1.64,.3l-.5,2.12c-.3-.14-.66-.21-1.07-.21-1.28,0-1.96,1.16-2.21,2.58l-.09,.55h2.3l-.39,2.05h-2.3l-1.71,9.05h-2.64Z"/>
        <path d="M467.6,250.34c0,3.78-2.62,7.02-6.4,7.02-2.8,0-4.54-1.94-4.54-4.58,0-3.76,2.62-7.02,6.41-7.02,2.99,0,4.54,2.14,4.54,4.58Zm-8.2,2.37c0,1.53,.8,2.6,2.16,2.6,1.98,0,3.31-2.73,3.31-4.95,0-1.14-.52-2.55-2.12-2.55-2.12,0-3.35,2.83-3.35,4.9Z"/>
        <path d="M468.76,257.1l1.3-6.84c.3-1.57,.46-3.28,.57-4.26h2.3c-.07,.75-.14,1.53-.25,2.33h.07c.75-1.48,1.96-2.58,3.46-2.58,.21,0,.41,.02,.59,.02l-.52,2.6c-.14-.02-.32-.02-.5-.02-1.89,0-3.1,1.91-3.53,4.29l-.84,4.47h-2.64Z"/>
        <path d="M480.61,246.01l.21,5.4c.05,1.3,.02,2.19-.04,3.28h.04c.34-.98,.8-2.01,1.3-3.12l2.69-5.56h2.21l.46,5.4c.09,1.28,.14,2.3,.11,3.28h.04c.34-1.07,.68-2.07,1.14-3.26l2.39-5.42h2.69l-5.45,11.1h-2.48l-.5-4.83c-.09-1.09-.14-2.12-.11-3.28h-.05c-.55,1.35-.84,2.16-1.3,3.17l-2.48,4.95h-2.48l-1.03-11.1h2.64Z"/>
        <path d="M500.46,257.1c0-.66,.09-1.55,.18-2.48h-.05c-1.09,2.03-2.58,2.74-3.99,2.74-1.98,0-3.28-1.55-3.28-3.78,0-3.78,2.64-7.82,7.82-7.82,1.21,0,2.51,.23,3.37,.5l-1.16,5.79c-.32,1.64-.5,3.74-.46,5.06h-2.44Zm1.07-9.18c-.27-.07-.62-.11-1.09-.11-2.44,0-4.35,2.76-4.35,5.29,0,1.16,.43,2.12,1.6,2.12,1.25,0,2.76-1.55,3.28-4.38l.57-2.92Z"/>
        <path d="M505.52,257.1l1.3-6.84c.3-1.57,.46-3.28,.57-4.26h2.3c-.07,.75-.14,1.53-.25,2.33h.07c.75-1.48,1.96-2.58,3.46-2.58,.21,0,.41,.02,.59,.02l-.52,2.6c-.14-.02-.32-.02-.5-.02-1.89,0-3.1,1.91-3.53,4.29l-.84,4.47h-2.64Z"/>
        <path d="M525.81,240.92l-2.32,12.22c-.25,1.3-.43,2.76-.5,3.97h-2.44l.23-1.96h-.05c-.98,1.5-2.37,2.21-3.81,2.21-1.98,0-3.37-1.6-3.37-4.1,0-3.92,2.85-7.5,6.93-7.5,.57,0,1.23,.11,1.71,.32l.98-5.15h2.64Zm-4.01,7.32c-.32-.25-.87-.43-1.53-.43-2.28,0-3.97,2.53-3.97,5.01,0,1.35,.52,2.39,1.78,2.39,1.19,0,2.62-1.3,3.05-3.6l.66-3.37Z"/>
      </g>
    </g>
  </g>
</svg>